<svg width="49" height="49" viewBox="0 0 49 49" fill="none" xmlns="http://www.w3.org/2000/svg">
<g clip-path="url(#clip0_925_393)">
<path d="M38.8461 17.6945H10.1538C9.79285 17.6945 9.44664 17.551 9.19139 17.2958C8.93613 17.0405 8.79272 16.6943 8.79272 16.3333C8.79272 15.9724 8.93613 15.6261 9.19139 15.3709C9.44664 15.1156 9.79285 14.9722 10.1538 14.9722H38.8461C39.207 14.9722 39.5532 15.1156 39.8085 15.3709C40.0638 15.6261 40.2072 15.9724 40.2072 16.3333C40.2072 16.6943 40.0638 17.0405 39.8085 17.2958C39.5532 17.551 39.207 17.6945 38.8461 17.6945Z" fill="white"/>
<path d="M28.8147 25.8611H10.1538C9.79285 25.8611 9.44664 25.7177 9.19139 25.4625C8.93613 25.2072 8.79272 24.861 8.79272 24.5C8.79272 24.139 8.93613 23.7928 9.19139 23.5376C9.44664 23.2823 9.79285 23.1389 10.1538 23.1389H28.8147C29.1757 23.1389 29.5219 23.2823 29.7771 23.5376C30.0324 23.7928 30.1758 24.139 30.1758 24.5C30.1758 24.861 30.0324 25.2072 29.7771 25.4625C29.5219 25.7177 29.1757 25.8611 28.8147 25.8611Z" fill="white"/>
<path d="M18.7016 34.0278H10.1538C9.79285 34.0278 9.44664 33.8844 9.19139 33.6291C8.93613 33.3738 8.79272 33.0276 8.79272 32.6667C8.79272 32.3057 8.93613 31.9595 9.19139 31.7042C9.44664 31.4489 9.79285 31.3055 10.1538 31.3055H18.7016C19.0626 31.3055 19.4088 31.4489 19.6641 31.7042C19.9193 31.9595 20.0627 32.3057 20.0627 32.6667C20.0627 33.0276 19.9193 33.3738 19.6641 33.6291C19.4088 33.8844 19.0626 34.0278 18.7016 34.0278Z" fill="white"/>
</g>
<defs>
<clipPath id="clip0_925_393">
<rect width="49" height="49" fill="white"/>
</clipPath>
</defs>
</svg>
